<?xml version="1.0" encoding="UTF-8"?>
<svg id="_Слой_1" data-name="Слой 1" xmlns="http://www.w3.org/2000/svg" version="1.1" xmlns:xlink="http://www.w3.org/1999/xlink" viewBox="0 0 250 250">
  <defs>
    <style>
      .st0 {
        fill: url(#_Безымянный_градиент_12);
      }

      .st1 {
        fill: url(#_Безымянный_градиент_10);
      }
    </style>
    <linearGradient id="_Безымянный_градиент_10" data-name="Безымянный градиент 10" x1="34.95" y1="117.03" x2="215.05" y2="117.03" gradientUnits="userSpaceOnUse">
      <stop offset="0" stop-color="#482813"/>
      <stop offset="1" stop-color="#482813"/>
    </linearGradient>
    <linearGradient id="_Безымянный_градиент_12" data-name="Безымянный градиент 12" x1="32.71" y1="207.03" x2="217.23" y2="207.03" gradientUnits="userSpaceOnUse">
      <stop offset="0" stop-color="#482813"/>
      <stop offset="1" stop-color="#482813"/>
    </linearGradient>
  </defs>
  <path class="st1" d="M47.08,199.64l-12.14,4.44,10.67-56.48,9.88-7.09.81-17.71,8.24-4.12.84-15.15c8.83.39,17.13,3.26,24.58,7.99l2.81,4.42c-7.46-4.12-15.12-6.96-23.6-7.84l-2.8,53.94c9.52-.09,18.6,1.23,27.4,4.3,5.42,1.97,10.28,4.39,14.81,7.9,7.28,5.75,11.99,13.21,15.44,21.98.58-23.26-1.67-43.53-.1-66.5,1.18-17.36,4.34-34.05,9.96-50.46,2.37-6.93,5.45-12.98,8.68-19.55-7.22,10.32-12.15,21.76-15.89,33.81-8.08,26.06-8.92,54.44-7.47,81.33-1.11-4.89-1.88-9.39-3.36-14.06-2.16-5.94-5.45-11.06-9.98-15.47l-8.14-7.92c-4.86-4.73-8.61-10.43-10.44-17.07,7.12,5.9,12.73,9.45,20.59,14.12-3.81-6.69-9.7-11.83-13.16-18.68-3.77-7.46-5.29-15.85-3.98-24.47,2.13,8.68,6,16.7,12.3,23.05-7.7-19.6-6.78-39.54,8.05-54.87,5.9-6.1,12.9-11.16,20.61-14.57-3.94,5.2-7.41,9.58-8.21,15.68,10.24-16.18,30.95-27.06,49.62-30.6-10.92,10.02-17.44,25-11.59,39.27,5.52,16.27-3.79,28.32-16.94,37.25,5.6-1.19,10.51-4.24,15.12-7.67,3.05-2.27,5.07-5.03,7.68-8.34-1.62,15.32-19.4,27.5-30.72,36.44l8.81-2.18c4.89-1.21,9.03-3.5,13.54-6.16-4.28,6.72-9.86,11.66-15.79,16.48-7.67,6.25-14.06,13.57-17.74,22.87l.14,38.05c1.56-2,2.15-4.04,3.2-6.1,5.17-10.48,13.72-18.16,24.58-22.47,9.61-3.81,19.65-5.48,30.21-5.36l-2.83-53.97c-8.7,1-16.05,3.71-23.55,7.85l2.77-4.41c7.48-4.72,15.76-7.6,24.6-7.99l.83,15.16,8.22,4.04.85,17.79,9.82,6.98,10.72,56.57-11.7-4.28c-15.54-5.69-34.25-11.21-50.84-9.72-8.43.76-21.04,4.72-24.18,13.73l-6.68-.08c-3.2-8.92-15.68-12.88-24.16-13.64-16.33-1.47-34.83,3.87-50.4,9.56ZM113.75,184.09c-11.31-13.9-34.62-20.03-51.68-16.92l2.21-44.67c-1.72.67-2.86,1.26-4.32,2.12l-2.5,51.54c15.23-3.51,30.39-2.53,44.46,3.09,7.77,3.1,13.66,8.53,18.37,15.37-1.49-3.93-4.09-7-6.54-10.53ZM129.76,194.52c4.98-7.18,11.1-12.53,19.09-15.59,13.97-5.35,28.95-6.21,43.7-2.76l-2.52-51.56c-1.46-.86-2.59-1.45-4.31-2.12l2.18,44.65c-17.3-3.03-39.5,3.07-50.84,15.97-2.72,3.69-5.64,7.17-7.31,11.41Z"/>
  <path class="st0" d="M193.05,211.05c-14.16-4.52-39.77-8.99-53.31-1.66.24,2.81.26,5.37-1.44,7.53-1.49,1.89-3.87,3.13-6.66,3.14l-12.88.04c-2.81,0-5.28-1.1-6.87-2.95-1.86-2.15-1.9-4.82-1.62-7.75-13.59-7.35-39.26-2.82-53.15,1.61l-24.33,7.76-.08-9.21c16.46-6.84,36.05-14.16,54-15.42,9.28-.66,21.88.8,29.2,6.72,1.98,1.61,2.99,3.49,3.29,6.28h11.46c.59-6.02,7.21-9.26,12.48-10.88,13.93-4.28,29.02-1.86,42.88,2.08,10.73,3.05,20.75,6.84,31.22,11.15v9.28s-24.18-7.71-24.18-7.71Z"/>
</svg>
